<svg width="33" height="33" viewBox="0 0 33 33" fill="none" xmlns="http://www.w3.org/2000/svg">
<ellipse cx="16.7866" cy="16.8936" rx="16.2133" ry="16.1046" fill="#DCDCDC"/>
<g clip-path="url(#clip0_34717_10149)">
<path d="M17.9508 15.7379C17.5127 15.3029 16.9187 15.0586 16.2993 15.0586C15.6799 15.0586 15.0858 15.3029 14.6478 15.7379L12.9957 17.3783C12.5576 17.8135 12.3115 18.4036 12.3115 19.019C12.3115 19.6344 12.5576 20.2246 12.9957 20.6597C13.4338 21.0948 14.028 21.3393 14.6475 21.3393C15.267 21.3393 15.8612 21.0948 16.2993 20.6597L17.125 19.8395" stroke="black" stroke-width="1.58333" stroke-linecap="round" stroke-linejoin="round"/>
<path d="M16.2988 17.3788C16.7369 17.8137 17.3309 18.0581 17.9503 18.0581C18.5697 18.0581 19.1638 17.8137 19.6018 17.3788L21.2539 15.7383C21.692 15.3032 21.9381 14.713 21.9381 14.0976C21.9381 13.4823 21.692 12.8921 21.2539 12.4569C20.8158 12.0218 20.2216 11.7773 19.6021 11.7773C18.9826 11.7773 18.3884 12.0218 17.9503 12.4569L17.1246 13.2772" stroke="black" stroke-width="1.58333" stroke-linecap="round" stroke-linejoin="round"/>
</g>
<defs>
<clipPath id="clip0_34717_10149">
<rect width="12.8356" height="12.7495" fill="white" transform="translate(10.707 10.1836)"/>
</clipPath>
</defs>
</svg>
